{
    "asset" : {
        "copyright" : "SA",
        "generator" : "Khronos glTF Blender I/O v0.9.12",
        "version" : "2.0"
    },
    "scene" : 0,
    "scenes" : [
        {
            "name" : "Scene",
            "nodes" : [
                0
            ]
        }
    ],
    "nodes" : [
        {
            "mesh" : 0,
            "name" : "roller bearing cov",
            "rotation" : [
                0.7071067690849304,
                0,
                0.7071067690849304,
                -2.149503899318006e-07
            ],
            "scale" : [
                0.06310657411813736,
                0.06310657411813736,
                0.06310657411813736
            ],
            "translation" : [
                1.1529537439346313,
                0.12457016110420227,
                1.122972846031189
            ]
        }
    ],
    "materials" : [
        {
            "doubleSided" : true,
            "name" : "Material_MRshine",
            "pbrMetallicRoughness" : {
                "baseColorFactor" : [
                    0.7277022004127502,
                    0.7277022004127502,
                    0.7277022004127502,
                    1
                ],
                "metallicFactor" : 0.6772726774215698,
                "roughnessFactor" : 0.38181817531585693
            }
        },
        {
            "doubleSided" : true,
            "name" : "Material_SG.001",
            "pbrMetallicRoughness" : {
                "baseColorFactor" : [
                    0.33316588401794434,
                    0.8982225060462952,
                    0.9787114858627319,
                    1
                ],
                "metallicFactor" : 0.3545454740524292,
                "roughnessFactor" : 0.34545454382896423
            }
        },
        {
            "doubleSided" : true,
            "name" : "Material_SG",
            "pbrMetallicRoughness" : {
                "baseColorFactor" : [
                    0.5839177966117859,
                    0.5839177966117859,
                    0.5839177966117859,
                    1
                ],
                "metallicFactor" : 0.7409090995788574,
                "roughnessFactor" : 0.23181818425655365
            }
        }
    ],
    "meshes" : [
        {
            "name" : "Mesh.011",
            "primitives" : [
                {
                    "attributes" : {
                        "POSITION" : 0,
                        "NORMAL" : 1,
                        "TEXCOORD_0" : 2,
                        "TEXCOORD_1" : 3,
                        "COLOR_0" : 4
                    },
                    "indices" : 5,
                    "material" : 0
                },
                {
                    "attributes" : {
                        "POSITION" : 6,
                        "NORMAL" : 7,
                        "TEXCOORD_0" : 8,
                        "TEXCOORD_1" : 9,
                        "COLOR_0" : 10
                    },
                    "indices" : 11,
                    "material" : 1
                },
                {
                    "attributes" : {
                        "POSITION" : 12,
                        "NORMAL" : 13,
                        "TEXCOORD_0" : 14,
                        "TEXCOORD_1" : 15,
                        "COLOR_0" : 16
                    },
                    "indices" : 17,
                    "material" : 2
                }
            ]
        }
    ],
    "accessors" : [
        {
            "bufferView" : 0,
            "componentType" : 5126,
            "count" : 611,
            "max" : [
                0.7697746753692627,
                0.3315627872943878,
                -0.7513938546180725
            ],
            "min" : [
                -1.0483901500701904,
                -0.07306349277496338,
                -2.558786392211914
            ],
            "type" : "VEC3"
        },
        {
            "bufferView" : 1,
            "componentType" : 5126,
            "count" : 611,
            "type" : "VEC3"
        },
        {
            "bufferView" : 2,
            "componentType" : 5126,
            "count" : 611,
            "type" : "VEC2"
        },
        {
            "bufferView" : 3,
            "componentType" : 5126,
            "count" : 611,
            "type" : "VEC2"
        },
        {
            "bufferView" : 4,
            "componentType" : 5126,
            "count" : 611,
            "type" : "VEC4"
        },
        {
            "bufferView" : 5,
            "componentType" : 5123,
            "count" : 3432,
            "type" : "SCALAR"
        },
        {
            "bufferView" : 6,
            "componentType" : 5126,
            "count" : 3936,
            "max" : [
                0.9686524271965027,
                0.33821460604667664,
                2.5154550075531006
            ],
            "min" : [
                -0.9925075173377991,
                -1.0543498992919922,
                -5.2353434562683105
            ],
            "type" : "VEC3"
        },
        {
            "bufferView" : 7,
            "componentType" : 5126,
            "count" : 3936,
            "type" : "VEC3"
        },
        {
            "bufferView" : 8,
            "componentType" : 5126,
            "count" : 3936,
            "type" : "VEC2"
        },
        {
            "bufferView" : 9,
            "componentType" : 5126,
            "count" : 3936,
            "type" : "VEC2"
        },
        {
            "bufferView" : 10,
            "componentType" : 5126,
            "count" : 3936,
            "type" : "VEC4"
        },
        {
            "bufferView" : 11,
            "componentType" : 5123,
            "count" : 23616,
            "type" : "SCALAR"
        },
        {
            "bufferView" : 12,
            "componentType" : 5126,
            "count" : 3480,
            "max" : [
                0.8399831652641296,
                0.3425390422344208,
                5.451635837554932
            ],
            "min" : [
                -0.8767769932746887,
                -0.7701245546340942,
                3.7350471019744873
            ],
            "type" : "VEC3"
        },
        {
            "bufferView" : 13,
            "componentType" : 5126,
            "count" : 3480,
            "type" : "VEC3"
        },
        {
            "bufferView" : 14,
            "componentType" : 5126,
            "count" : 3480,
            "type" : "VEC2"
        },
        {
            "bufferView" : 15,
            "componentType" : 5126,
            "count" : 3480,
            "type" : "VEC2"
        },
        {
            "bufferView" : 16,
            "componentType" : 5126,
            "count" : 3480,
            "type" : "VEC4"
        },
        {
            "bufferView" : 17,
            "componentType" : 5123,
            "count" : 20736,
            "type" : "SCALAR"
        }
    ],
    "bufferViews" : [
        {
            "buffer" : 0,
            "byteLength" : 7332,
            "byteOffset" : 0
        },
        {
            "buffer" : 0,
            "byteLength" : 7332,
            "byteOffset" : 7332
        },
        {
            "buffer" : 0,
            "byteLength" : 4888,
            "byteOffset" : 14664
        },
        {
            "buffer" : 0,
            "byteLength" : 4888,
            "byteOffset" : 19552
        },
        {
            "buffer" : 0,
            "byteLength" : 9776,
            "byteOffset" : 24440
        },
        {
            "buffer" : 0,
            "byteLength" : 6864,
            "byteOffset" : 34216
        },
        {
            "buffer" : 0,
            "byteLength" : 47232,
            "byteOffset" : 41080
        },
        {
            "buffer" : 0,
            "byteLength" : 47232,
            "byteOffset" : 88312
        },
        {
            "buffer" : 0,
            "byteLength" : 31488,
            "byteOffset" : 135544
        },
        {
            "buffer" : 0,
            "byteLength" : 31488,
            "byteOffset" : 167032
        },
        {
            "buffer" : 0,
            "byteLength" : 62976,
            "byteOffset" : 198520
        },
        {
            "buffer" : 0,
            "byteLength" : 47232,
            "byteOffset" : 261496
        },
        {
            "buffer" : 0,
            "byteLength" : 41760,
            "byteOffset" : 308728
        },
        {
            "buffer" : 0,
            "byteLength" : 41760,
            "byteOffset" : 350488
        },
        {
            "buffer" : 0,
            "byteLength" : 27840,
            "byteOffset" : 392248
        },
        {
            "buffer" : 0,
            "byteLength" : 27840,
            "byteOffset" : 420088
        },
        {
            "buffer" : 0,
            "byteLength" : 55680,
            "byteOffset" : 447928
        },
        {
            "buffer" : 0,
            "byteLength" : 41472,
            "byteOffset" : 503608
        }
    ],
    "buffers" : [
        {
            "byteLength" : 545080,
            "uri" : "data:application/octet-stream;base64,"
        }
    ]
}
