{
    "asset" : {
        "copyright" : "SA",
        "generator" : "Khronos glTF Blender I/O v0.9.12",
        "version" : "2.0"
    },
    "scene" : 0,
    "scenes" : [
        {
            "name" : "Scene",
            "nodes" : [
                0
            ]
        }
    ],
    "nodes" : [
        {
            "mesh" : 0,
            "name" : "bearing bod",
            "rotation" : [
                0.7071067690849304,
                0,
                0.7071067690849304,
                -2.149503899318006e-07
            ],
            "scale" : [
                0.06310657411813736,
                0.06310657411813736,
                0.06310657411813736
            ],
            "translation" : [
                0.36940068006515503,
                0.17796573042869568,
                0.9266956448554993
            ]
        }
    ],
    "materials" : [
        {
            "doubleSided" : true,
            "name" : "Material_MRshine",
            "pbrMetallicRoughness" : {
                "baseColorFactor" : [
                    0.7277022004127502,
                    0.7277022004127502,
                    0.7277022004127502,
                    1
                ],
                "metallicFactor" : 0.6772726774215698,
                "roughnessFactor" : 0.38181817531585693
            }
        }
    ],
    "meshes" : [
        {
            "name" : "Mesh.044",
            "primitives" : [
                {
                    "attributes" : {
                        "POSITION" : 0,
                        "NORMAL" : 1,
                        "TEXCOORD_0" : 2,
                        "TEXCOORD_1" : 3,
                        "COLOR_0" : 4
                    },
                    "indices" : 5,
                    "material" : 0
                }
            ]
        }
    ],
    "accessors" : [
        {
            "bufferView" : 0,
            "componentType" : 5126,
            "count" : 2790,
            "max" : [
                5.777354717254639,
                1.1669695377349854,
                4.410207271575928
            ],
            "min" : [
                -5.955845832824707,
                -1.1536450386047363,
                -4.269559860229492
            ],
            "type" : "VEC3"
        },
        {
            "bufferView" : 1,
            "componentType" : 5126,
            "count" : 2790,
            "type" : "VEC3"
        },
        {
            "bufferView" : 2,
            "componentType" : 5126,
            "count" : 2790,
            "type" : "VEC2"
        },
        {
            "bufferView" : 3,
            "componentType" : 5126,
            "count" : 2790,
            "type" : "VEC2"
        },
        {
            "bufferView" : 4,
            "componentType" : 5126,
            "count" : 2790,
            "type" : "VEC4"
        },
        {
            "bufferView" : 5,
            "componentType" : 5123,
            "count" : 5802,
            "type" : "SCALAR"
        }
    ],
    "bufferViews" : [
        {
            "buffer" : 0,
            "byteLength" : 33480,
            "byteOffset" : 0
        },
        {
            "buffer" : 0,
            "byteLength" : 33480,
            "byteOffset" : 33480
        },
        {
            "buffer" : 0,
            "byteLength" : 22320,
            "byteOffset" : 66960
        },
        {
            "buffer" : 0,
            "byteLength" : 22320,
            "byteOffset" : 89280
        },
        {
            "buffer" : 0,
            "byteLength" : 44640,
            "byteOffset" : 111600
        },
        {
            "buffer" : 0,
            "byteLength" : 11604,
            "byteOffset" : 156240
        }
    ],
    "buffers" : [
        {
            "byteLength" : 167844,
            "uri" : "data:application/octet-stream;base64,"
        }
    ]
}
