{
    "asset" : {
        "copyright" : "SA",
        "generator" : "Khronos glTF Blender I/O v0.9.12",
        "version" : "2.0"
    },
    "scene" : 0,
    "scenes" : [
        {
            "name" : "Scene",
            "nodes" : [
                0
            ]
        }
    ],
    "nodes" : [
        {
            "mesh" : 0,
            "name" : "bearing spring",
            "rotation" : [
                0.7071067690849304,
                0,
                0.7071067690849304,
                -2.149503899318006e-07
            ],
            "scale" : [
                0.06310657411813736,
                0.06310657411813736,
                0.06310657411813736
            ],
            "translation" : [
                0.3164886236190796,
                0.15265613794326782,
                0.9274580478668213
            ]
        }
    ],
    "materials" : [
        {
            "doubleSided" : true,
            "name" : "Material_MRshine",
            "pbrMetallicRoughness" : {
                "baseColorFactor" : [
                    0.7277022004127502,
                    0.7277022004127502,
                    0.7277022004127502,
                    1
                ],
                "metallicFactor" : 0.6772726774215698,
                "roughnessFactor" : 0.38181817531585693
            }
        },
        {
            "doubleSided" : true,
            "name" : "Material_SG",
            "pbrMetallicRoughness" : {
                "baseColorFactor" : [
                    0.5839177966117859,
                    0.5839177966117859,
                    0.5839177966117859,
                    1
                ],
                "metallicFactor" : 0.7409090995788574,
                "roughnessFactor" : 0.23181818425655365
            }
        }
    ],
    "meshes" : [
        {
            "name" : "Mesh.010",
            "primitives" : [
                {
                    "attributes" : {
                        "POSITION" : 0,
                        "NORMAL" : 1,
                        "TEXCOORD_0" : 2,
                        "TEXCOORD_1" : 3,
                        "COLOR_0" : 4
                    },
                    "indices" : 5,
                    "material" : 0
                },
                {
                    "attributes" : {
                        "POSITION" : 6,
                        "NORMAL" : 7,
                        "TEXCOORD_0" : 8,
                        "TEXCOORD_1" : 9,
                        "COLOR_0" : 10
                    },
                    "indices" : 11,
                    "material" : 1
                }
            ]
        }
    ],
    "accessors" : [
        {
            "bufferView" : 0,
            "componentType" : 5126,
            "count" : 512,
            "max" : [
                1.608798623085022,
                0.7144021987915039,
                4.17062520980835
            ],
            "min" : [
                -1.3557261228561401,
                -1.0003854036331177,
                2.4951729774475098
            ],
            "type" : "VEC3"
        },
        {
            "bufferView" : 1,
            "componentType" : 5126,
            "count" : 512,
            "type" : "VEC3"
        },
        {
            "bufferView" : 2,
            "componentType" : 5126,
            "count" : 512,
            "type" : "VEC2"
        },
        {
            "bufferView" : 3,
            "componentType" : 5126,
            "count" : 512,
            "type" : "VEC2"
        },
        {
            "bufferView" : 4,
            "componentType" : 5126,
            "count" : 512,
            "type" : "VEC4"
        },
        {
            "bufferView" : 5,
            "componentType" : 5123,
            "count" : 3060,
            "type" : "SCALAR"
        },
        {
            "bufferView" : 6,
            "componentType" : 5126,
            "count" : 1825,
            "max" : [
                1.6039656400680542,
                0.72725510597229,
                -0.16771778464317322
            ],
            "min" : [
                -1.7216120958328247,
                -0.7714856863021851,
                -1.665856957435608
            ],
            "type" : "VEC3"
        },
        {
            "bufferView" : 7,
            "componentType" : 5126,
            "count" : 1825,
            "type" : "VEC3"
        },
        {
            "bufferView" : 8,
            "componentType" : 5126,
            "count" : 1825,
            "type" : "VEC2"
        },
        {
            "bufferView" : 9,
            "componentType" : 5126,
            "count" : 1825,
            "type" : "VEC2"
        },
        {
            "bufferView" : 10,
            "componentType" : 5126,
            "count" : 1825,
            "type" : "VEC4"
        },
        {
            "bufferView" : 11,
            "componentType" : 5123,
            "count" : 10878,
            "type" : "SCALAR"
        }
    ],
    "bufferViews" : [
        {
            "buffer" : 0,
            "byteLength" : 6144,
            "byteOffset" : 0
        },
        {
            "buffer" : 0,
            "byteLength" : 6144,
            "byteOffset" : 6144
        },
        {
            "buffer" : 0,
            "byteLength" : 4096,
            "byteOffset" : 12288
        },
        {
            "buffer" : 0,
            "byteLength" : 4096,
            "byteOffset" : 16384
        },
        {
            "buffer" : 0,
            "byteLength" : 8192,
            "byteOffset" : 20480
        },
        {
            "buffer" : 0,
            "byteLength" : 6120,
            "byteOffset" : 28672
        },
        {
            "buffer" : 0,
            "byteLength" : 21900,
            "byteOffset" : 34792
        },
        {
            "buffer" : 0,
            "byteLength" : 21900,
            "byteOffset" : 56692
        },
        {
            "buffer" : 0,
            "byteLength" : 14600,
            "byteOffset" : 78592
        },
        {
            "buffer" : 0,
            "byteLength" : 14600,
            "byteOffset" : 93192
        },
        {
            "buffer" : 0,
            "byteLength" : 29200,
            "byteOffset" : 107792
        },
        {
            "buffer" : 0,
            "byteLength" : 21756,
            "byteOffset" : 136992
        }
    ],
    "buffers" : [
        {
            "byteLength" : 158748,
            "uri" : "data:application/octet-stream;base64,"
        }
    ]
}
